<svg width="20" height="12" viewBox="0 0 20 12" fill="none" xmlns="http://www.w3.org/2000/svg">
<path d="M13.3335 5.1665C14.7168 5.1665 15.8252 4.04984 15.8252 2.6665C15.8252 1.28317 14.7168 0.166504 13.3335 0.166504C11.9502 0.166504 10.8335 1.28317 10.8335 2.6665C10.8335 4.04984 11.9502 5.1665 13.3335 5.1665ZM6.66683 5.1665C8.05016 5.1665 9.1585 4.04984 9.1585 2.6665C9.1585 1.28317 8.05016 0.166504 6.66683 0.166504C5.2835 0.166504 4.16683 1.28317 4.16683 2.6665C4.16683 4.04984 5.2835 5.1665 6.66683 5.1665ZM6.66683 6.83317C4.72516 6.83317 0.833496 7.80817 0.833496 9.74984V10.9998C0.833496 11.4582 1.2085 11.8332 1.66683 11.8332H11.6668C12.1252 11.8332 12.5002 11.4582 12.5002 10.9998V9.74984C12.5002 7.80817 8.6085 6.83317 6.66683 6.83317ZM13.3335 6.83317C13.0918 6.83317 12.8168 6.84984 12.5252 6.87484C12.5418 6.88317 12.5502 6.89984 12.5585 6.90817C13.5085 7.59984 14.1668 8.52484 14.1668 9.74984V10.9998C14.1668 11.2915 14.1085 11.5748 14.0168 11.8332H18.3335C18.7918 11.8332 19.1668 11.4582 19.1668 10.9998V9.74984C19.1668 7.80817 15.2752 6.83317 13.3335 6.83317Z" fill="#001869"/>
</svg>
