<svg width="32" height="32" viewBox="0 0 32 32" fill="none" xmlns="http://www.w3.org/2000/svg">
<g clip-path="url(#clip0_266_1861)">
<path d="M16.0003 2.6665C8.62699 2.6665 2.66699 8.6265 2.66699 15.9998C2.66699 23.3732 8.62699 29.3332 16.0003 29.3332C23.3737 29.3332 29.3337 23.3732 29.3337 15.9998C29.3337 8.6265 23.3737 2.6665 16.0003 2.6665ZM16.0003 26.6665C10.1203 26.6665 5.33366 21.8798 5.33366 15.9998C5.33366 10.1198 10.1203 5.33317 16.0003 5.33317C21.8803 5.33317 26.667 10.1198 26.667 15.9998C26.667 21.8798 21.8803 26.6665 16.0003 26.6665ZM20.787 9.33317L16.0003 14.1198L11.2137 9.33317L9.33366 11.2132L14.1203 15.9998L9.33366 20.7865L11.2137 22.6665L16.0003 17.8798L20.787 22.6665L22.667 20.7865L17.8803 15.9998L22.667 11.2132L20.787 9.33317Z" fill="#001869"/>
</g>
<defs>
<clipPath id="clip0_266_1861">
<rect width="32" height="32" fill="white"/>
</clipPath>
</defs>
</svg>
