<svg width="28" height="24" viewBox="0 0 28 24" fill="none" xmlns="http://www.w3.org/2000/svg">
<path fill-rule="evenodd" clip-rule="evenodd" d="M24.6665 0H3.33317C1.8665 0 0.666504 1.2 0.666504 2.66667V21.3333C0.666504 22.8 1.8665 24 3.33317 24H24.6665C26.1332 24 27.3332 22.8 27.3332 21.3333V2.66667C27.3332 1.2 26.1332 0 24.6665 0ZM11.3332 18.6667H4.6665V16H11.3332V18.6667ZM11.3332 13.3333H4.6665V10.6667H11.3332V13.3333ZM11.3332 8H4.6665V5.33333H11.3332V8ZM17.7598 16L13.9998 12.2133L15.8798 10.3333L17.7598 12.2267L21.9865 8L23.8798 9.89333L17.7598 16Z" fill="#001869"/>
</svg>
