<svg width="14" height="18" viewBox="0 0 14 18" fill="none" xmlns="http://www.w3.org/2000/svg">
<path d="M12.0002 3.99984H10.3335C10.3335 2.15817 8.84183 0.666504 7.00016 0.666504C5.1585 0.666504 3.66683 2.15817 3.66683 3.99984H2.00016C1.0835 3.99984 0.333496 4.74984 0.333496 5.6665V15.6665C0.333496 16.5832 1.0835 17.3332 2.00016 17.3332H12.0002C12.9168 17.3332 13.6668 16.5832 13.6668 15.6665V5.6665C13.6668 4.74984 12.9168 3.99984 12.0002 3.99984ZM5.3335 7.33317C5.3335 7.7915 4.9585 8.1665 4.50016 8.1665C4.04183 8.1665 3.66683 7.7915 3.66683 7.33317V5.6665H5.3335V7.33317ZM7.00016 2.33317C7.91683 2.33317 8.66683 3.08317 8.66683 3.99984H5.3335C5.3335 3.08317 6.0835 2.33317 7.00016 2.33317ZM10.3335 7.33317C10.3335 7.7915 9.9585 8.1665 9.50016 8.1665C9.04183 8.1665 8.66683 7.7915 8.66683 7.33317V5.6665H10.3335V7.33317Z" fill="#001869"/>
</svg>
