<svg width="24" height="24" viewBox="0 0 24 24" fill="none" xmlns="http://www.w3.org/2000/svg">
<path d="M18.6667 10.6667C19.12 10.6667 19.56 10.72 20 10.7867V4.36L10 0L0 4.36V10.9067C0 16.96 4.26667 22.6267 10 24C10.7333 23.8267 11.44 23.5733 12.1333 23.2667C11.2133 21.96 10.6667 20.3733 10.6667 18.6667C10.6667 14.2533 14.2533 10.6667 18.6667 10.6667Z" fill="#001869"/>
<path d="M18.6668 13.3335C15.7202 13.3335 13.3335 15.7202 13.3335 18.6668C13.3335 21.6135 15.7202 24.0002 18.6668 24.0002C21.6135 24.0002 24.0002 21.6135 24.0002 18.6668C24.0002 15.7202 21.6135 13.3335 18.6668 13.3335ZM18.6668 15.1735C19.4935 15.1735 20.1602 15.8535 20.1602 16.6668C20.1602 17.4802 19.4802 18.1602 18.6668 18.1602C17.8535 18.1602 17.1735 17.4802 17.1735 16.6668C17.1735 15.8535 17.8402 15.1735 18.6668 15.1735ZM18.6668 22.3335C17.4268 22.3335 16.3468 21.7202 15.6802 20.7735C15.7468 19.8135 17.6935 19.3335 18.6668 19.3335C19.6402 19.3335 21.5868 19.8135 21.6535 20.7735C20.9868 21.7202 19.9068 22.3335 18.6668 22.3335Z" fill="#001869"/>
</svg>
